<svg xmlns="http://www.w3.org/2000/svg" viewBox="0 0 24 24" width="24" height="24"><path fill="#800080" d="M13.13 22.19L11.5 18.36c-.07-.13-.21-.2-.35-.2h-1.3c-.14 0-.28.07-.35.2L7.87 22.19c-.05.09-.07.2-.05.31.02.11.09.21.18.26.09.05.2.07.31.05.11-.02.21-.09.26-.18l1.5-3.8h1.5l1.5 3.8c.05.09.15.16.26.18.11.02.22 0 .31-.05.09-.05.16-.15.18-.26.02-.11 0-.22-.05-.31zM5.5 13.5c-.83 0-1.5-.67-1.5-1.5s.67-1.5 1.5-1.5 1.5.67 1.5 1.5-.67 1.5-1.5 1.5zm13 0c-.83 0-1.5-.67-1.5-1.5s.67-1.5 1.5-1.5 1.5.67 1.5 1.5-.67 1.5-1.5 1.5zm-6.5-6.5c-.83 0-1.5-.67-1.5-1.5s.67-1.5 1.5-1.5 1.5.67 1.5 1.5-.67 1.5-1.5 1.5z"/></svg>